# xmcd
#
# Track frame offsets: 
#        150
#        12637
#        24033
#        35745
#        45650
#        54995
#        70288
#        81065
#        95352
#        102990
#        113898
#        123958
#        136301
#        145861
#        156301
#        167946
#        176520
#        186152
#        199148
#        211045
#        220463
#        231594
#        244214
#        256147
#        268575
#
# Disc length: 3729 seconds
#
# Revision: 4
# Processed by: cddbd v1.5.2PL0 Copyright (c) Steve Scherf et al.
# Submitted via: ExactAudioCopyFreeDBPlugin 1.0
#
DISCID=6a0e8f19
DTITLE=Various Artist - Various ‎– Northern Soul. The Early Years. Vo
DTITLE=lume Two. 100 Classic and Rare Tracks
DYEAR=2018
DGENRE=Soul
TTITLE0=The Radiants - One Day I'll Show You
TTITLE1=Ann Cole - Got My Mojo Working
TTITLE2=Freddie North - Just To Please You
TTITLE3=Tommy Hunt - Poor Millionaire
TTITLE4=Kitty White - I'm Gonna Be A Fool Next Monday
TTITLE5=Barbara Dane - I'm On My Way
TTITLE6=Harald Jackson and The Jackson Brothers - The Freedom Ride
TTITLE7=Leroy Jones - Hide Nor Hair
TTITLE8=The Tams - My Baby
TTITLE9=Betty Everett - I've Got A Claim On You
TTITLE10=Lula Reed - Puddentane
TTITLE11=Harvey Fuqua - Any Way You Wanta
TTITLE12=Sue Perrin - Put A Ring On My Finger
TTITLE13=Major Lance - I've Got A Girl
TTITLE14=Betty Willis - Take Your Heart
TTITLE15=Larry Birdsong - Since You Left Me Behind
TTITLE16=Herbert Hunter - Dr. Feelgood
TTITLE17=Henry Lumpkin - Mojo Hannah
TTITLE18=Marv Johnson - I Love The Way You Love
TTITLE19=Mike Pedicin - Burnt Toast And Black Coffee
TTITLE20=The Miller Sisters - Tell Him
TTITLE21=Big Sambo and The House Wreckers - At The Party
TTITLE22=Ike and Tina Turner - Fool In Love
TTITLE23=Ruth Brown - I Burned Your Letter
TTITLE24=Theola Kilgore - The Sound Of My Man
EXTD=
EXTT0=
EXTT1=
EXTT2=
EXTT3=
EXTT4=
EXTT5=
EXTT6=
EXTT7=
EXTT8=
EXTT9=
EXTT10=
EXTT11=
EXTT12=
EXTT13=
EXTT14=
EXTT15=
EXTT16=
EXTT17=
EXTT18=
EXTT19=
EXTT20=
EXTT21=
EXTT22=
EXTT23=
EXTT24=
PLAYORDER=
